<svg width="24" height="24" viewBox="0 0 24 24" fill="none" xmlns="http://www.w3.org/2000/svg">
<circle cx="12" cy="12" r="12" transform="matrix(-1 0 0 1 23.9999 0)" fill="#91B77C"/>
<path d="M7.49615 9.57591C8.35996 12.969 11.0311 15.6402 14.4242 16.504C15.7087 16.831 16.7999 15.7257 16.7999 14.4002V13.8002C16.7999 13.4688 16.5306 13.2034 16.2009 13.1707C15.6438 13.1154 15.109 12.984 14.6073 12.7869L13.6957 13.6985C12.2131 12.989 11.0111 11.787 10.3016 10.3044L11.2132 9.39283C11.0161 8.89109 10.8847 8.35637 10.8295 7.79925C10.7968 7.46949 10.5313 7.2002 10.1999 7.2002H9.59993C8.27444 7.2002 7.16914 8.2914 7.49615 9.57591Z" fill="white" stroke="white" stroke-linecap="round" stroke-linejoin="round"/>
</svg>
